<svg width="17" height="18" viewBox="0 0 17 18" fill="none" xmlns="http://www.w3.org/2000/svg">
<path d="M16.5446 16.875H15.7857V0.84375C15.7857 0.377754 15.378 0 14.875 0H2.125C1.62202 0 1.21429 0.377754 1.21429 0.84375V16.875H0.455357C0.203886 16.875 0 17.0639 0 17.2969V18H17V17.2969C17 17.0639 16.7961 16.875 16.5446 16.875ZM4.85714 2.67188C4.85714 2.43889 5.06103 2.25 5.3125 2.25H6.83036C7.08183 2.25 7.28571 2.43889 7.28571 2.67188V4.07812C7.28571 4.31111 7.08183 4.5 6.83036 4.5H5.3125C5.06103 4.5 4.85714 4.31111 4.85714 4.07812V2.67188ZM4.85714 6.04688C4.85714 5.81389 5.06103 5.625 5.3125 5.625H6.83036C7.08183 5.625 7.28571 5.81389 7.28571 6.04688V7.45312C7.28571 7.68611 7.08183 7.875 6.83036 7.875H5.3125C5.06103 7.875 4.85714 7.68611 4.85714 7.45312V6.04688ZM6.83036 11.25H5.3125C5.06103 11.25 4.85714 11.0611 4.85714 10.8281V9.42188C4.85714 9.18889 5.06103 9 5.3125 9H6.83036C7.08183 9 7.28571 9.18889 7.28571 9.42188V10.8281C7.28571 11.0611 7.08183 11.25 6.83036 11.25ZM9.71429 16.875H7.28571V13.9219C7.28571 13.6889 7.4896 13.5 7.74107 13.5H9.25893C9.5104 13.5 9.71429 13.6889 9.71429 13.9219V16.875ZM12.1429 10.8281C12.1429 11.0611 11.939 11.25 11.6875 11.25H10.1696C9.91817 11.25 9.71429 11.0611 9.71429 10.8281V9.42188C9.71429 9.18889 9.91817 9 10.1696 9H11.6875C11.939 9 12.1429 9.18889 12.1429 9.42188V10.8281ZM12.1429 7.45312C12.1429 7.68611 11.939 7.875 11.6875 7.875H10.1696C9.91817 7.875 9.71429 7.68611 9.71429 7.45312V6.04688C9.71429 5.81389 9.91817 5.625 10.1696 5.625H11.6875C11.939 5.625 12.1429 5.81389 12.1429 6.04688V7.45312ZM12.1429 4.07812C12.1429 4.31111 11.939 4.5 11.6875 4.5H10.1696C9.91817 4.5 9.71429 4.31111 9.71429 4.07812V2.67188C9.71429 2.43889 9.91817 2.25 10.1696 2.25H11.6875C11.939 2.25 12.1429 2.43889 12.1429 2.67188V4.07812Z" fill="white"/>
</svg>
