<svg width="18" height="16" viewBox="0 0 18 16" fill="none" xmlns="http://www.w3.org/2000/svg">
<path d="M9 0C4.02891 0 0 3.325 0 7.42857C0 9.2 0.752344 10.8214 2.00391 12.0964C1.56445 13.8964 0.0949219 15.5 0.0773438 15.5179C0 15.6 -0.0210937 15.7214 0.0246094 15.8286C0.0703125 15.9357 0.16875 16 0.28125 16C2.61211 16 4.35938 14.8643 5.22422 14.1643C6.37383 14.6036 7.65 14.8571 9 14.8571C13.9711 14.8571 18 11.5321 18 7.42857C18 3.325 13.9711 0 9 0ZM4.5 8.57143C3.87773 8.57143 3.375 8.06071 3.375 7.42857C3.375 6.79643 3.87773 6.28571 4.5 6.28571C5.12227 6.28571 5.625 6.79643 5.625 7.42857C5.625 8.06071 5.12227 8.57143 4.5 8.57143ZM9 8.57143C8.37773 8.57143 7.875 8.06071 7.875 7.42857C7.875 6.79643 8.37773 6.28571 9 6.28571C9.62227 6.28571 10.125 6.79643 10.125 7.42857C10.125 8.06071 9.62227 8.57143 9 8.57143ZM13.5 8.57143C12.8777 8.57143 12.375 8.06071 12.375 7.42857C12.375 6.79643 12.8777 6.28571 13.5 6.28571C14.1223 6.28571 14.625 6.79643 14.625 7.42857C14.625 8.06071 14.1223 8.57143 13.5 8.57143Z" fill="white"/>
</svg>
