<svg width="17" height="15" viewBox="0 0 17 15" fill="none" xmlns="http://www.w3.org/2000/svg">
<path d="M11.8823 2.43505L14.5444 5.07814C14.6566 5.18949 14.6566 5.37117 14.5444 5.48252L8.09861 11.8822L5.35972 12.184C4.99375 12.225 4.68385 11.9174 4.72517 11.554L5.02917 8.83473L11.475 2.43505C11.5872 2.3237 11.7701 2.3237 11.8823 2.43505ZM16.6635 1.76402L15.2233 0.33405C14.7747 -0.11135 14.0457 -0.11135 13.5941 0.33405L12.5493 1.37136C12.4372 1.48271 12.4372 1.66439 12.5493 1.77574L15.2115 4.41883C15.3236 4.53018 15.5066 4.53018 15.6187 4.41883L16.6635 3.38152C17.1122 2.93319 17.1122 2.20942 16.6635 1.76402ZM11.3333 10.1416V13.1246H1.88889V3.7478H8.67118C8.76562 3.7478 8.85417 3.70971 8.92205 3.64524L10.1026 2.47314C10.3269 2.25044 10.1675 1.87244 9.85174 1.87244H1.41667C0.634549 1.87244 0 2.50244 0 3.27896V13.5935C0 14.37 0.634549 15 1.41667 15H11.8056C12.5877 15 13.2222 14.37 13.2222 13.5935V8.96953C13.2222 8.65599 12.8415 8.50068 12.6172 8.72045L11.4366 9.89256C11.3717 9.95995 11.3333 10.0479 11.3333 10.1416Z" fill="#2A74DF"/>
</svg>
