<svg width="17" height="19" viewBox="0 0 17 19" fill="none" xmlns="http://www.w3.org/2000/svg">
<path d="M17 9.1861C17 14.222 13.1941 18.3024 8.5 18.3024C3.80591 18.3024 0 14.222 0 9.1861C0 4.15314 3.80591 0.0698242 8.5 0.0698242C13.1941 0.0698242 17 4.15314 17 9.1861ZM8.7281 3.08408C6.86025 3.08408 5.66895 3.92796 4.73347 5.42777C4.61228 5.62208 4.65282 5.88414 4.82653 6.0254L6.01581 6.99254C6.1942 7.13762 6.44838 7.10311 6.58699 6.91453C7.19926 6.08164 7.61908 5.59866 8.551 5.59866C9.25119 5.59866 10.1173 6.08197 10.1173 6.81017C10.1173 7.36068 9.69353 7.64339 9.00219 8.0591C8.19592 8.54385 7.12903 9.14717 7.12903 10.6565V10.8035C7.12903 11.0471 7.31319 11.2446 7.54032 11.2446H9.45968C9.68681 11.2446 9.87097 11.0471 9.87097 10.8035V10.7545C9.87097 9.70827 12.7221 9.66471 12.7221 6.83351C12.7221 4.70141 10.66 3.08408 8.7281 3.08408ZM8.5 12.2004C7.63064 12.2004 6.92339 12.9589 6.92339 13.8913C6.92339 14.8236 7.63064 15.5822 8.5 15.5822C9.36936 15.5822 10.0766 14.8236 10.0766 13.8913C10.0766 12.9589 9.36936 12.2004 8.5 12.2004Z" fill="black"/>
</svg>
