<svg width="18" height="18" viewBox="0 0 18 18" fill="none" xmlns="http://www.w3.org/2000/svg">
<path d="M13.1632 4.54645C12.0287 3.48416 10.5564 2.90185 8.99448 2.90323C6.18351 2.90569 3.75677 4.83307 3.08675 7.50665C3.03797 7.70128 2.86458 7.83871 2.66393 7.83871H0.584383C0.312278 7.83871 0.105569 7.59168 0.155903 7.32426C0.941117 3.1545 4.60208 0 9 0C11.4114 0 13.6013 0.948484 15.2171 2.4926L16.5132 1.19649C17.0619 0.647819 18 1.03642 18 1.81238V6.67742C18 7.15845 17.6101 7.54839 17.129 7.54839H12.264C11.488 7.54839 11.0994 6.61025 11.6481 6.06154L13.1632 4.54645ZM0.870968 10.4516H5.73601C6.51197 10.4516 6.90057 11.3898 6.35189 11.9385L4.83677 13.4536C5.97128 14.5159 7.44369 15.0982 9.00566 15.0968C11.8152 15.0943 14.2429 13.1682 14.9133 10.4934C14.962 10.2988 15.1354 10.1614 15.3361 10.1614H17.4157C17.6878 10.1614 17.8945 10.4084 17.8441 10.6758C17.0589 14.8455 13.3979 18 9 18C6.58858 18 4.39871 17.0515 2.78292 15.5074L1.48681 16.8035C0.938141 17.3522 0 16.9636 0 16.1876V11.3226C0 10.8416 0.389939 10.4516 0.870968 10.4516Z" fill="white"/>
</svg>
