<svg width="19" height="20" viewBox="0 0 19 20" fill="none" xmlns="http://www.w3.org/2000/svg">
<path d="M18.8416 4.26165C18.7585 3.90892 18.3391 3.78939 18.0949 4.04642L15.3355 6.9511L12.8165 6.5093L12.3968 3.85775L15.1563 0.953065C15.4019 0.694472 15.2835 0.253848 14.9462 0.165567C13.188 -0.293026 11.252 0.201114 9.87784 1.6472C8.40683 3.19564 8.00197 5.44017 8.61427 7.39719L0.695521 15.7327C-0.23184 16.7089 -0.23184 18.2917 0.695521 19.2679C1.62288 20.244 3.12655 20.244 4.05391 19.2679L11.966 10.9394C13.8259 11.5921 15.9541 11.1612 17.4348 9.60266C18.8104 8.15461 19.2791 6.1136 18.8416 4.26165ZM2.37509 18.4374C1.88339 18.4374 1.48446 18.0175 1.48446 17.4999C1.48446 16.9819 1.88339 16.5624 2.37509 16.5624C2.86678 16.5624 3.26571 16.9819 3.26571 17.4999C3.26571 18.0175 2.86678 18.4374 2.37509 18.4374Z" fill="white"/>
</svg>
